HIERARCHY
ROOT Hips
{
  OFFSET 0.000000 0.000000 0.000000
  CHANNELS 6 Xposition Yposition Zposition Xrotation Yrotation Zrotation
  JOINT Spine
  {
    OFFSET 0.762862 23.197727 -6.058858
    CHANNELS 3 Xrotation Yrotation Zrotation
    JOINT Chest
    {
      OFFSET 0.762862 23.197727 -6.058858
      CHANNELS 3 Xrotation Yrotation Zrotation
      JOINT Neck
      {
        OFFSET -0.270074 9.229822 -3.797407
        CHANNELS 3 Xrotation Yrotation Zrotation
        JOINT Head
        {
          OFFSET 0.225285 8.430608 -7.939136
          CHANNELS 3 Xrotation Yrotation Zrotation
          End Site
          {
            OFFSET 0.067585 2.529182 -2.381741
          }
        }
      }
      JOINT LeftShoulder
      {
        OFFSET 17.595006 0.044015 0.996102
        CHANNELS 3 Xrotation Yrotation Zrotation
        JOINT LeftArm
        {
          OFFSET 3.473531 -23.049457 3.982832
          CHANNELS 3 Xrotation Yrotation Zrotation
          JOINT LeftForeArm
          {
            OFFSET 3.218371 -22.980839 -10.241008
            CHANNELS 3 Xrotation Yrotation Zrotation
            JOINT LeftHand
            {
              OFFSET -0.008887 -5.924601 -2.989147
              CHANNELS 3 Xrotation Yrotation Zrotation
              End Site
              {
                OFFSET -0.002666 -1.777380 -0.896744
              }
            }
          }
        }
      }
      JOINT RightShoulder
      {
        OFFSET -17.595006 -0.044015 -0.996102
        CHANNELS 3 Xrotation Yrotation Zrotation
        JOINT RightArm
        {
          OFFSET -5.553442 -24.118242 6.751946
          CHANNELS 3 Xrotation Yrotation Zrotation
          JOINT RightForeArm
          {
            OFFSET -3.099014 -24.977112 -8.059516
            CHANNELS 3 Xrotation Yrotation Zrotation
            JOINT RightHand
            {
              OFFSET 0.298828 -5.701374 -2.573080
              CHANNELS 3 Xrotation Yrotation Zrotation
              End Site
              {
                OFFSET 0.089648 -1.710412 -0.771924
              }
            }
          }
        }
      }
    }
  }
  JOINT LeftUpLeg
  {
    OFFSET 11.990773 -0.614304 0.788698
    CHANNELS 3 Xrotation Yrotation Zrotation
    JOINT LeftLeg
    {
      OFFSET -5.144974 -41.347031 -0.530598
      CHANNELS 3 Xrotation Yrotation Zrotation
      JOINT LeftFoot
      {
        OFFSET 2.709190 -35.138144 18.775504
        CHANNELS 3 Xrotation Yrotation Zrotation
        End Site
        {
          OFFSET 0.812757 -10.541443 5.632651
        }
      }
    }
  }
  JOINT RightUpLeg
  {
    OFFSET -11.990773 0.614304 -0.788698
    CHANNELS 3 Xrotation Yrotation Zrotation
    JOINT RightLeg
    {
      OFFSET 0.284998 -37.357294 5.081156
      CHANNELS 3 Xrotation Yrotation Zrotation
      JOINT RightFoot
      {
        OFFSET 4.690763 -28.563407 28.545631
        CHANNELS 3 Xrotation Yrotation Zrotation
        End Site
        {
          OFFSET 1.407229 -8.569022 8.563689
        }
      }
    }
  }
}
MOTION
Frames: 16
Frame Time: 0.083333
-8.559344 60.000000 -10.585336 5.463662 -0.035218 0.564097 5.463662 -0.035218 0.564097 0.000000 0.000000 0.000000 4.108661 0.830044 1.067447 5.000000 0.000000 0.000000 5.864108 1.563020 5.985908 1.501015 3.052480 -5.916505 2.503990 4.799092 -8.860015 0.000000 0.000000 0.000000 6.954378 -1.171128 1.939772 1.407563 -0.664409 1.452309 -1.554833 -0.373853 0.654781 0.000000 0.000000 0.000000 -0.529571 0.069639 0.469504 0.629309 1.146319 2.084032 0.000000 0.000000 0.000000 5.141873 0.154586 1.428965 26.203827 3.125607 -0.693431 0.000000 0.000000 0.000000
-9.368808 60.000000 -11.865411 10.184637 -0.377007 -0.299579 10.184637 -0.377007 -0.299579 0.000000 0.000000 0.000000 4.268617 1.481961 1.825131 5.000000 0.000000 0.000000 8.776225 2.028029 7.972145 7.662085 5.662395 -8.374325 4.406956 9.328097 -16.714065 0.000000 0.000000 0.000000 6.020081 -1.263022 0.464695 2.242371 -0.746763 1.350994 -2.545440 0.282298 -0.966403 0.000000 0.000000 0.000000 2.899625 -0.359133 -0.010737 0.925287 1.431702 2.604770 0.000000 0.000000 0.000000 11.681744 0.145583 1.720940 27.549710 2.784234 -1.460812 0.000000 0.000000 0.000000
-10.089308 60.000000 -12.827060 11.694902 -0.436223 -0.381988 11.694902 -0.436223 -0.381988 0.000000 0.000000 0.000000 5.301705 1.807633 2.274688 5.000000 0.000000 0.000000 11.299942 2.334247 9.518395 13.258857 8.213456 -10.253103 5.837998 13.441420 -23.212153 0.000000 0.000000 0.000000 6.373689 -1.500292 -0.257452 2.947985 -0.884002 1.460959 -2.160847 1.056303 -2.722194 0.000000 0.000000 0.000000 4.028275 -0.473999 -0.490584 1.725551 1.417602 2.543119 0.000000 0.000000 0.000000 12.891335 0.127945 1.364890 20.444372 1.239248 -2.395617 0.000000 0.000000 0.000000
-10.654293 60.000000 -13.337856 12.647801 -0.384939 0.157155 12.647801 -0.384939 0.157155 0.000000 0.000000 0.000000 6.772970 2.225733 2.865945 5.000000 0.000000 0.000000 13.714464 2.534367 10.463301 18.843868 10.508870 -11.316525 9.273277 16.227681 -26.317615 0.000000 0.000000 0.000000 6.697673 -1.728160 -0.967745 3.491634 -1.067671 1.762770 -2.031612 1.722976 -4.234715 0.000000 0.000000 0.000000 5.165655 -0.560140 -1.370752 -0.733934 0.712387 1.565787 0.000000 0.000000 0.000000 13.059616 0.111852 0.536243 12.900752 0.028107 -2.637042 0.000000 0.000000 0.000000
-11.098777 60.000000 -13.112865 13.068501 -0.251893 1.178000 13.068501 -0.251893 1.178000 0.000000 0.000000 0.000000 6.676885 2.194115 2.820813 5.000000 0.000000 0.000000 15.326797 2.649287 11.105559 19.055919 11.486766 -12.649778 10.024641 16.285404 -26.056163 0.000000 0.000000 0.000000 6.263974 -1.698360 -1.258729 3.321905 -1.286028 2.438063 -1.153108 2.085202 -4.875353 0.000000 0.000000 0.000000 5.785360 -0.583777 -2.142206 -5.099131 -0.450787 -0.075156 0.000000 0.000000 0.000000 13.779474 0.105133 0.077127 0.000000 0.000000 0.000000 0.000000 0.000000 0.000000
-11.816313 60.000000 -12.058582 13.013519 -0.145812 1.893322 13.013519 -0.145812 1.893322 0.000000 0.000000 0.000000 6.647481 2.093698 2.698805 5.000000 0.000000 0.000000 14.997893 2.631784 11.138785 17.586304 11.226260 -12.954890 10.485238 14.738623 -23.369918 0.000000 0.000000 0.000000 7.567271 -1.906058 -0.904457 3.810092 -1.571035 3.022146 -0.102352 1.996392 -4.438040 0.000000 0.000000 0.000000 5.786234 -0.602925 -1.843542 -2.747427 -0.116342 0.183347 0.000000 0.000000 0.000000 13.362370 0.099727 -0.086129 0.000000 0.000000 0.000000 0.000000 0.000000 0.000000
-12.663900 60.000000 -10.942773 11.972837 -0.031141 2.306840 11.972837 -0.031141 2.306840 0.000000 0.000000 0.000000 6.571675 2.226413 2.850514 5.000000 0.000000 0.000000 13.835508 2.498409 9.816119 14.205071 9.771015 -12.323348 7.931528 12.502004 -20.800345 0.000000 0.000000 0.000000 9.415395 -2.131437 -0.045414 4.372454 -1.659819 3.020552 0.607828 1.908942 -4.092917 0.000000 0.000000 0.000000 5.334860 -0.608077 -0.883483 -0.087222 0.235970 0.453602 0.000000 0.000000 0.000000 12.298856 0.099779 0.188136 0.000000 0.000000 0.000000 0.000000 0.000000 0.000000
-13.540573 60.000000 -11.087628 9.623876 0.131573 2.550245 9.623876 0.131573 2.550245 0.000000 0.000000 0.000000 5.697655 2.311590 2.879537 5.000000 0.000000 0.000000 10.052583 2.145540 8.392559 8.697570 7.351288 -10.955475 3.599238 9.683840 -17.520873 0.000000 0.000000 0.000000 9.096047 -1.896684 0.781308 3.380617 -1.460689 2.890653 0.335951 1.764081 -3.833941 0.000000 0.000000 0.000000 4.053352 -0.534765 0.773665 -0.048280 0.301164 0.569955 0.000000 0.000000 0.000000 11.592684 0.127377 1.028038 0.000000 0.000000 0.000000 0.000000 0.000000 0.000000
-14.169176 60.000000 -13.387202 6.956195 0.258600 2.455266 6.956195 0.258600 2.455266 0.000000 0.000000 0.000000 4.193495 2.609579 3.102636 5.000000 0.000000 0.000000 4.853982 1.638627 7.183233 4.118477 4.916996 -8.609301 1.122739 5.885779 -11.292975 0.000000 0.000000 0.000000 7.611373 -1.502770 1.072304 1.616003 -1.073628 2.569613 -0.801611 1.735575 -4.003894 0.000000 0.000000 0.000000 1.488585 -0.222087 1.482214 0.000000 0.000000 0.000000 0.000000 0.000000 0.000000 10.986700 0.181461 2.474913 0.000000 0.000000 0.000000 0.000000 0.000000 0.000000
-14.764725 60.000000 -16.163598 6.494821 0.241378 2.242949 6.494821 0.241378 2.242949 0.000000 0.000000 0.000000 3.639269 3.007641 3.506570 5.000000 0.000000 0.000000 4.087310 1.435003 6.113185 1.096422 2.749107 -5.591818 -0.413302 4.054776 -8.100288 0.000000 0.000000 0.000000 7.213974 -1.593288 0.199842 0.626243 -0.986893 2.761335 -1.725071 1.653242 -4.011911 0.000000 0.000000 0.000000 1.368885 -0.219251 1.982677 0.000000 0.000000 0.000000 0.000000 0.000000 0.000000 11.252103 0.190312 2.785282 0.000000 0.000000 0.000000 0.000000 0.000000 0.000000
-15.207094 60.000000 -17.864824 6.285706 0.251997 2.240935 6.285706 0.251997 2.240935 0.000000 0.000000 0.000000 2.811636 3.287184 3.742572 5.000000 0.000000 0.000000 3.962625 1.308794 5.267865 -0.512633 1.607109 -3.788070 -1.154783 4.144964 -8.413324 0.000000 0.000000 0.000000 6.813129 -1.658506 -0.519688 -0.251221 -1.072901 3.433644 -3.542648 1.488407 -4.023687 0.000000 0.000000 0.000000 2.679547 -0.399070 1.804836 0.000000 0.000000 0.000000 0.000000 0.000000 0.000000 12.890462 0.154547 2.502293 0.000000 0.000000 0.000000 0.000000 0.000000 0.000000
-15.529126 60.000000 -18.615721 5.974374 0.285561 2.324767 5.974374 0.285561 2.324767 0.000000 0.000000 0.000000 1.972752 3.650384 4.065594 5.000000 0.000000 0.000000 3.383698 1.237984 5.181299 -1.302227 1.024066 -2.777477 -1.618459 4.323139 -8.864635 0.000000 0.000000 0.000000 6.115163 -1.740023 -1.594113 -0.223174 -1.436047 4.540579 -3.536215 1.466706 -3.971062 0.000000 0.000000 0.000000 4.555424 -0.656296 1.679457 0.000000 0.000000 0.000000 0.000000 0.000000 0.000000 14.173419 0.134958 2.581615 0.000000 0.000000 0.000000 0.000000 0.000000 0.000000
-17.020156 60.000000 -21.558035 6.330407 0.300356 2.492817 6.330407 0.300356 2.492817 0.000000 0.000000 0.000000 1.752664 3.825815 4.236054 5.000000 0.000000 0.000000 3.225039 1.197824 4.990288 -2.518310 0.692044 -2.474061 -2.019676 4.494596 -9.289817 0.000000 0.000000 0.000000 5.942266 -2.002256 -2.955486 0.385371 -1.990116 5.854802 -3.596540 0.964834 -2.786525 0.000000 0.000000 0.000000 5.823784 -0.817153 1.446453 0.000000 0.000000 0.000000 0.000000 0.000000 0.000000 14.766630 0.130812 3.104068 0.000000 0.000000 0.000000 0.000000 0.000000 0.000000
-23.717031 60.000000 -35.389912 8.061610 0.229099 2.624013 8.061610 0.229099 2.624013 0.000000 0.000000 0.000000 0.845736 3.703079 4.014828 5.000000 0.000000 0.000000 4.934271 1.300872 4.298242 -2.727293 0.373686 -1.783107 -0.315066 4.728590 -9.418325 0.000000 0.000000 0.000000 6.226412 -2.454152 -4.865606 3.290102 -3.114611 7.399828 -3.042319 -0.973428 1.933256 0.000000 0.000000 0.000000 7.030313 -0.940875 0.883831 0.000000 0.000000 0.000000 0.000000 0.000000 0.000000 15.229074 0.128961 2.887563 0.000000 0.000000 0.000000 0.000000 0.000000 0.000000
-34.546183 60.000000 -55.726608 11.722335 0.053625 2.798882 11.722335 0.053625 2.798882 0.000000 0.000000 0.000000 -0.636440 3.389392 3.546897 5.000000 0.000000 0.000000 9.108010 1.660263 3.254396 -3.700874 -0.183572 -0.804780 2.250256 4.946984 -9.323062 0.000000 0.000000 0.000000 7.743688 -3.169611 -7.061425 8.426308 -4.869220 9.142760 -2.429046 -4.805435 10.888753 0.000000 0.000000 0.000000 7.658747 -0.954210 -0.062380 0.000000 0.000000 0.000000 0.000000 0.000000 0.000000 16.372578 0.137297 1.255783 0.000000 0.000000 0.000000 0.000000 0.000000 0.000000
-42.549207 60.000000 -69.184261 13.495638 -0.015838 3.002390 13.495638 -0.015838 3.002390 0.000000 0.000000 0.000000 -2.247281 2.779588 2.774041 5.000000 0.000000 0.000000 12.373010 1.985448 2.496516 -3.719434 -0.416776 -0.246235 4.692067 5.082754 -9.118388 0.000000 0.000000 0.000000 8.016464 -3.591417 -8.919256 12.173809 -6.207694 10.254872 -0.411878 -7.639480 17.036130 0.000000 0.000000 0.000000 6.725388 -0.757858 -1.118281 0.000000 0.000000 0.000000 0.000000 0.000000 0.000000 17.638163 0.164440 -1.746227 0.000000 0.000000 0.000000 0.000000 0.000000 0.000000
